<svg xmlns="http://www.w3.org/2000/svg" viewBox="0 0 1203.52 121.19"><defs><style>.cls-1{fill:#218cff;}</style></defs><g id="Capa_2" data-name="Capa 2"><g id="Layer_1" data-name="Layer 1"><path class="cls-1" d="M227.16,61.27A55.29,55.29,0,0,0,172.63,5.36c-.45,0-.91,0-1.34,0-19.12,0-39.19,11.22-58.15,32.4C88.43,11.06,68.05,5.39,55.21,5.39a55.23,55.23,0,1,0,0,110.45c19.15,0,39.24-11.2,58.21-32.41,24.68,26.68,45,32.36,57.85,32.37H172A55.44,55.44,0,0,0,227.16,61.27ZM190,79.15a26.11,26.11,0,0,1-18.57,7.71c-10.45,0-25.18-9.83-39.61-26.39,18.07-21.57,31.47-26.16,39.59-26.16A26.27,26.27,0,0,1,190,79.15ZM28.43,61a26.28,26.28,0,0,1,25.9-26.65H56a19.16,19.16,0,0,1,2.55.29c10.12,1.78,23.37,11.28,36.27,26.08C76.76,82.31,63.35,86.89,55.23,86.89h-.15A26.33,26.33,0,0,1,28.43,61Z"/><path d="M276.14,3.14h46q23.81,0,39.68,16.7,16,16.53,16,41.17t-16,41.17q-15.87,16.69-39.68,16.7h-46ZM299,97.05h23.15q15,0,24.47-9.92Q356,76.88,356,61q0-16-9.42-26Q337.15,25,322.11,25H299Z"/><path d="M473.39,86.31H411.06q4.13,15.54,23.31,15.54,12.24,0,18.52-8.27l17.19,9.92q-12.22,17.7-36,17.69-20.51,0-32.9-12.4t-12.4-31.25Q388.74,59,401,46.46,413,33.89,432.39,33.89q18.35,0,29.92,12.57Q474.22,59,474.22,77.54A59.06,59.06,0,0,1,473.39,86.31ZM410.73,69.77h42.16q-1.81-8.1-7.36-12.4a20.82,20.82,0,0,0-13.14-4.3q-8.59,0-14.22,4.39A20.9,20.9,0,0,0,410.73,69.77Z"/><path d="M531.09.83v20.5q-17.52-1.16-17.52,14.05v.83h17.52v20.5H513.57v62.17H492.24V56.71H480.33V36.21h11.91v-.83q0-17.69,9.84-26.7T531.09.83Z"/><path d="M555.56,26.29a12.48,12.48,0,0,1-9.17-3.89,12.48,12.48,0,0,1-3.89-9.17A12.78,12.78,0,0,1,546.39,4a12.37,12.37,0,0,1,9.17-4,12.58,12.58,0,0,1,9.34,4,12.82,12.82,0,0,1,3.89,9.26,12.52,12.52,0,0,1-3.89,9.17A12.7,12.7,0,0,1,555.56,26.29Zm10.75,92.59H545V36.21h21.33Z"/><path d="M684.86,3.14V25h-46.3V52.41h45V74.24h-45v44.64H615.74V3.14Z"/><path d="M711.14,26.29A12.51,12.51,0,0,1,702,22.4a12.52,12.52,0,0,1-3.89-9.17A12.82,12.82,0,0,1,702,4a12.4,12.4,0,0,1,9.17-4,12.62,12.62,0,0,1,9.35,4,12.85,12.85,0,0,1,3.88,9.26,12.55,12.55,0,0,1-3.88,9.17A12.73,12.73,0,0,1,711.14,26.29Zm10.75,92.59H700.56V36.21h21.33Z"/><path d="M787.36,33.89q13.73,0,22.33,9.1,8.92,9.25,8.92,25.13v50.76H797.28V70.77q0-8.1-4.38-12.57t-12-4.46q-8.45,0-13.31,5.2t-4.88,15.3v44.64H741.4V36.21h21.33v9.26Q770.33,33.89,787.36,33.89Z"/><path d="M899.63,46V36.21H921v82.67H899.63v-9.76q-9.6,12.07-27,12.07-16.54,0-28.44-12.56Q832.49,95.9,832.5,77.54q0-18.18,11.74-30.91,11.91-12.74,28.44-12.74Q890,33.89,899.63,46ZM860.28,94.41q6.45,6.45,16.37,6.45T893,94.41q6.62-6.61,6.62-16.87T893,60.84a23.56,23.56,0,0,0-32.73,0q-6.45,6.45-6.45,16.7T860.28,94.41Z"/><path d="M986.26,33.89q13.72,0,22.33,9.1,8.92,9.25,8.92,25.13v50.76H996.19V70.77q0-8.1-4.39-12.57t-12-4.46q-8.43,0-13.31,5.2t-4.88,15.3v44.64H940.3V36.21h21.33v9.26Q969.24,33.89,986.26,33.89Z"/><path d="M1075.05,121.19q-18.69,0-31.25-12.56-12.4-12.57-12.4-31.09t12.4-31.08q12.57-12.57,31.25-12.57a42.81,42.81,0,0,1,22,5.79,38.56,38.56,0,0,1,15,15.54L1093.73,66a18.71,18.71,0,0,0-7.52-8.1,21.8,21.8,0,0,0-11.32-3A21.39,21.39,0,0,0,1059,61.26q-6.29,6.36-6.28,16.28A22.64,22.64,0,0,0,1059,93.75a21.52,21.52,0,0,0,15.88,6.28,22.7,22.7,0,0,0,11.49-2.89,18.2,18.2,0,0,0,7.52-8l18.52,10.58A40.37,40.37,0,0,1,1097,115.41,43.05,43.05,0,0,1,1075.05,121.19Z"/><path d="M1202.69,86.31h-62.33q4.13,15.54,23.31,15.54,12.24,0,18.52-8.27l17.2,9.92q-12.24,17.7-36.05,17.69-20.5,0-32.9-12.4T1118,77.54q0-18.51,12.23-31.08,12.07-12.57,31.42-12.57,18.35,0,29.93,12.57,11.89,12.57,11.9,31.08A59.06,59.06,0,0,1,1202.69,86.31ZM1140,69.77h42.16q-1.82-8.1-7.36-12.4a20.82,20.82,0,0,0-13.14-4.3q-8.6,0-14.22,4.39A20.9,20.9,0,0,0,1140,69.77Z"/></g></g></svg>